<svg width="150" height="150" viewBox="0 0 150 150" fill="none" xmlns="http://www.w3.org/2000/svg">
<path d="M75 95.0002C86.0457 95.0002 95 86.0459 95 75.0002C95 63.9545 86.0457 55.0002 75 55.0002C63.9543 55.0002 55 63.9545 55 75.0002C55 86.0459 63.9543 95.0002 75 95.0002Z" fill="black"/>
<path d="M56.25 12.5L44.8125 25H25C18.125 25 12.5 30.625 12.5 37.5V112.5C12.5 119.375 18.125 125 25 125H125C131.875 125 137.5 119.375 137.5 112.5V37.5C137.5 30.625 131.875 25 125 25H105.188L93.75 12.5H56.25ZM75 106.25C57.75 106.25 43.75 92.25 43.75 75C43.75 57.75 57.75 43.75 75 43.75C92.25 43.75 106.25 57.75 106.25 75C106.25 92.25 92.25 106.25 75 106.25Z" fill="black"/>
</svg>
