<svg width="100" height="100" viewBox="0 0 100 100" fill="none" xmlns="http://www.w3.org/2000/svg">
<path d="M84.8333 26.2281H72.0833V17.2807C72.0833 12.3149 68.3008 8.33331 63.5833 8.33331H38.0833C33.3658 8.33331 29.5833 12.3149 29.5833 17.2807V26.2281H16.8333C12.1158 26.2281 8.33334 30.2096 8.33334 35.1754V84.3859C8.33334 89.3517 12.1158 93.3333 16.8333 93.3333H84.8333C89.5508 93.3333 93.3333 89.3517 93.3333 84.3859V35.1754C93.3333 30.2096 89.5508 26.2281 84.8333 26.2281ZM38.0833 17.2807H63.5833V26.2281H38.0833V17.2807ZM84.8333 84.3859H16.8333V75.4386H84.8333V84.3859ZM84.8333 62.0175H16.8333V35.1754H29.5833V44.1228H38.0833V35.1754H63.5833V44.1228H72.0833V35.1754H84.8333V62.0175Z" fill="black"/>
</svg>
